<svg width="304" height="253" xmlns="http://www.w3.org/2000/svg" xmlns:xlink="http://www.w3.org/1999/xlink">
    <defs>
        <path id="a" d="M0 0h303.338v37.4H0z"/>
    </defs>
    <g fill="none" fill-rule="evenodd">
        <path fill="#FFD3D3" d="m298.306 47.162-4.774 23.119-3.071-2.996-5.23 3.727-3.994-4.959-8.962 6.515-7.654-12.806-8.542 5.003-3.386-4.671-10.847 6.11-3.263-6.985 7.602-36.82 40.759 8.415 11.362 16.348"/>
        <path fill="#FFB6B7" d="m286.944 30.814 11.363 16.346-14.136-2.918 2.773-13.428"/>
        <path fill="#FFD3D3" d="m292.517 74.901-7.003 33.92-54.895-11.332 6.949-33.649 3.263 6.986 10.846-6.111 3.386 4.67 8.543-5.002 7.653 12.806 8.962-6.516 3.995 4.96 5.23-3.727 3.07 2.995M213.942 70.926l-55.946 3.463-4.445-71.818L195.091 0l15.254 12.793 3.597 58.133"/>
        <path fill="#FFB6B7" d="m195.092 0 15.253 12.793-14.406.892L195.092 0M178.697 57.158c-.13-2.316 1.343-4.03 3.533-4.153 2.19-.123 3.783 1.42 3.912 3.735.123 2.19-1.22 3.96-3.536 4.09-2.19.122-3.786-1.483-3.909-3.672zm.886-8.838-.217-1.62c-.564-3.357.356-7.112 3.273-11.041 2.63-3.474 4.059-6.002 3.9-8.817-.178-3.191-2.3-5.207-6.245-5.049-2.253.127-4.713 1.018-6.21 2.294l-1.724-3.858c1.982-1.617 5.491-2.818 8.808-3.004 7.196-.403 10.698 3.858 10.964 8.613.239 4.255-1.967 7.453-4.77 11.188-2.572 3.408-3.419 6.218-3.052 9.398l.153 1.623-4.88.273z"/>
        <path d="M66.405 41.799a5.06 5.06 0 0 1-1.167 7.062 5.064 5.064 0 1 1 1.167-7.062zm3.193-5.692-5.63-2.553-.78 1.724a1.47 1.47 0 0 1-1.283.855 8.54 8.54 0 0 0-.92.09 1.468 1.468 0 0 1-1.422-.588l-1.102-1.538-5.027 3.601 1.102 1.538c.323.452.355 1.043.1 1.535-.143.275-.27.556-.382.843a1.47 1.47 0 0 1-1.221.94l-1.885.185.608 6.152 1.89-.189a1.47 1.47 0 0 1 1.379.69 8.932 8.932 0 0 0 .53.74c.346.433.438 1.015.21 1.52l-.786 1.737 5.63 2.553.783-1.728a1.47 1.47 0 0 1 1.285-.853 8.59 8.59 0 0 0 .916-.089 1.47 1.47 0 0 1 1.42.589l1.103 1.538 5.027-3.601-1.103-1.54a1.47 1.47 0 0 1-.1-1.533c.141-.273.268-.554.379-.84a1.47 1.47 0 0 1 1.221-.941l1.888-.187-.607-6.152-1.889.187a1.467 1.467 0 0 1-1.374-.688 8.906 8.906 0 0 0-.533-.743 1.472 1.472 0 0 1-.21-1.528l.783-1.726zM83.44 21.53a3.548 3.548 0 1 1 .912 7.036 3.548 3.548 0 0 1-.912-7.036zm-2.457-3.856-3.44 2.63.806 1.053c.237.31.272.724.103 1.075a6.04 6.04 0 0 0-.25.599 1.03 1.03 0 0 1-.833.682l-1.315.172.56 4.295 1.314-.17c.386-.05.762.125.981.446.122.179.253.35.394.514.253.297.325.706.175 1.066l-.51 1.224 4 1.662.51-1.229c.149-.36.493-.593.882-.623a6.258 6.258 0 0 0 .632-.083c.382-.07.772.066 1.008.374l.812 1.06 3.44-2.63-.807-1.056a1.029 1.029 0 0 1-.101-1.075c.093-.193.176-.392.248-.596.13-.365.448-.631.834-.681l1.315-.172-.56-4.295-1.314.17c-.385.051-.76-.125-.98-.445a5.942 5.942 0 0 0-.394-.512 1.03 1.03 0 0 1-.177-1.066l.51-1.227-3.999-1.662-.51 1.228c-.15.359-.492.59-.88.62a5.943 5.943 0 0 0-.634.083 1.031 1.031 0 0 1-1.014-.377l-.806-1.054z" fill="#FFD3D3"/>
        <path d="M55.3 130.225c.197-4.827.118-9.664-.198-14.484-.653-9.942-2.29-19.808-4.538-29.509-1.265-5.46-2.823-10.83-4.447-16.192-.048-.162-.307-.116-.262.053 5.02 18.904 9.14 38.413 8.856 58.064-.08 5.5-.716 10.902-1.238 16.367-.014.146.226.205.26.054 1.036-4.676 1.373-9.577 1.567-14.353" fill="#E4E4DE"/>
        <path d="M45.855 70.093s-7.605 19.304-5.903 23.842c1.703 4.538 5.213 5.505 5.213 5.505s-4.653 6.644-1.401 12.875 10.477 5.937 10.957 13.002c0 0 .402-29.542-8.866-55.224" fill="#76DADB"/>
        <path d="m53.894 113.119-.007-.102c-1.068-13.126-3.398-26.211-7.378-38.834l-.062.013A279.46 279.46 0 0 1 50.44 91.23c-.987-1.017-2.28-1.602-3.63-2.024l-.014.039c1.407.608 2.754 1.313 3.748 2.504.223 1.119.44 2.238.646 3.36-1.699-1.9-4.056-2.843-6.414-3.738l-.02.051c2.457 1 4.904 2.289 6.568 4.406.58 3.203 1.088 6.418 1.527 9.643a9.192 9.192 0 0 0-4.535-2.6c-.053-.012-.082.066-.028.082 1.807.52 3.362 1.532 4.6 2.946l.027.021c.153 1.135.297 2.271.43 3.408a11.714 11.714 0 0 0-3.178-1.918l-.017.049c1.183.504 2.247 1.229 3.184 2.107l.04.016c.127 1.081.253 2.163.362 3.246-1.744-2.1-3.9-3.621-6.45-4.605-.05-.02-.076.056-.028.077 2.48 1.078 4.667 2.787 6.357 4.892a.142.142 0 0 0 .16.05c.165 1.662.313 3.325.434 4.992l.038.002a211.854 211.854 0 0 0-.353-5.116" fill="#FFFFFE"/>
        <path d="M47.783 87.287c-1.319-.907-2.995-1.294-4.57-1.425l-.003.058c1.637.243 3.013.836 4.518 1.475.065.028.112-.07.055-.108M48.706 107.725c-1.043-.626-2.234-.98-3.43-1.174l-.005.066c1.215.22 2.29.652 3.394 1.19.047.023.086-.055.041-.082" fill="#FFFFFE"/>
        <path d="M75.294 94.25c-3.172 2.23-6.215 4.802-8.803 7.695-2.758 3.084-4.769 6.584-6.174 10.47-2.877 7.96-4.455 16.581-4.599 25.04-.08 4.742.342 9.447 1.356 14.082.037.169.29.12.263-.05a78.975 78.975 0 0 1 .138-24.615c1.308-7.986 3.36-16.674 8.436-23.165 2.764-3.534 6.21-6.314 9.617-9.187.18-.152-.05-.4-.234-.27" fill="#E4E4DE"/>
        <path d="M56.838 131.705s2.612-4.399 6.417-8.203c3.804-3.803 7.009-6.507 7.503-9.023.495-2.515-3.811-4.368-3.811-4.368s5.265.945 6.706-1.264c1.44-2.21 2.136-15.008 2.136-15.008s-9.579 6.838-14.042 16.425c-4.462 9.586-4.91 21.44-4.91 21.44" fill="#76DADB"/>
        <path d="M72.475 97.12c-4.03 3.958-8.087 8.176-10.46 13.377a51.384 51.384 0 0 0-2.116 5.516l-.003.009c-.122.378-.246.755-.361 1.136l-.02.062c-1.173 3.884-2.002 7.9-2.721 11.824l.04.013c.412-1.997.867-4.013 1.376-6.024l.057-.011a8.379 8.379 0 0 1 2.514-.638c.057-.005.052-.105-.006-.102-.848.04-1.68.19-2.486.454.464-1.813.968-3.621 1.535-5.402 1.85-.454 3.78-.698 5.681-.744l.003-.03a21.477 21.477 0 0 0-5.586.474c.099-.306.202-.61.304-.914 1.249-.284 2.503-.524 3.78-.64l-.002-.042c-1.25.034-2.484.166-3.701.45a65.926 65.926 0 0 1 1.709-4.543 27.516 27.516 0 0 1 1.808-3.511c1.024-.232 2.017-.453 3.067-.547l-.003-.051c-.953-.062-1.945.01-2.867.283a36.694 36.694 0 0 1 1.6-2.383c2.148-.476 4.325-.917 6.523-.504l.014-.067c-2.092-.55-4.168-.232-6.25.18.228-.303.46-.602.695-.898a14.285 14.285 0 0 1 4.013-.63l.004-.045a10.483 10.483 0 0 0-3.742.332c1.776-2.206 3.737-4.278 5.676-6.328.09-.095.02-.15-.075-.056" fill="#FFFFFE"/>
        <path d="M72.368 105.844c-.63-.067-1.272-.138-1.906-.066-.076.008-.07.133.007.135.631.018 1.262-.029 1.893.006.048.003.054-.07.006-.075M65.473 118.259c-1.006-.012-2.011.258-2.952.593l.014.042c.975-.232 1.961-.327 2.946-.49.08-.012.077-.144-.008-.145M63.407 113.97c-.408-.022-.85.05-1.253.113l.004.075c.407.007.855.018 1.256-.059.071-.013.068-.125-.007-.13" fill="#FFFFFE"/>
        <path d="M28.758 107.832c3.083 1.071 6.14 2.449 8.903 4.192 2.945 1.86 5.382 4.227 7.416 7.047a65.864 65.864 0 0 1 9.51 19.201c1.161 3.82 1.908 7.725 2.158 11.71.009.145-.206.165-.224.02a66.488 66.488 0 0 0-5.802-19.888c-2.904-6.161-6.573-12.718-12.18-16.797-3.055-2.222-6.486-3.675-9.908-5.213-.18-.08-.052-.334.127-.272" fill="#E4E4DE"/>
        <path d="M52.352 133.878s-3.13-2.957-7.089-5.156c-3.958-2.199-7.176-3.646-8.158-5.567-.982-1.922 2.075-4.417 2.075-4.417s-4.043 1.983-5.72.527c-1.676-1.455-5.197-11.652-5.197-11.652s9.333 3.32 15.16 10.047 8.93 16.218 8.93 16.218" fill="#76DADB"/>
        <path d="M51.866 131.774c-4.668-8.761-10.896-16.687-19.43-21.919l-.004.006c2.247 1.432 4.317 3.083 6.247 4.889-1.728-.048-3.486.227-5.018 1.059l.026.052c1.706-.578 3.346-.957 5.162-.872l.059-.022c.302.287.601.579.897.873-.898.039-1.806.166-2.681.356l.007.038a13.664 13.664 0 0 1 2.832-.234c1.564 1.571 3.021 3.252 4.402 4.998a4.484 4.484 0 0 0-1.875.136c-.044.013-.033.077.014.07.68-.085 1.326-.074 2.001-.027.256.326.514.649.764.979a18.073 18.073 0 0 0-5.664.55l.008.043c1.924-.377 3.864-.498 5.818-.377.238.315.463.64.697.96-1.145-.035-2.255.108-3.372.385l.013.068c1.148-.262 2.316-.328 3.49-.272a94.414 94.414 0 0 1 2.89 4.229c-.489-.101-1.003-.046-1.48.089l.008.04c.55-.064 1.062.006 1.602.076a112.495 112.495 0 0 1 2.405 3.916c.065.11.244.027.182-.089" fill="#FFFFFE"/>
        <path d="M44.605 124.507c-.912-.078-1.84.065-2.71.332l.007.04c.897-.165 1.787-.228 2.696-.276.06-.004.071-.09.007-.096M36.465 113.83c-.413-.047-.843.007-1.25.073-.05.007-.034.079.013.074.412-.045.817-.03 1.229-.041.066-.002.077-.098.008-.106" fill="#FFFFFE"/>
        <path fill="#B8ECEC" d="M64.39 162.849H43.322l3.772-27.645h13.523l3.771 27.645"/>
        <path fill="#76DADB" d="M61.385 140.846H46.327l.768-5.642h13.523l.767 5.642"/>
        <path fill="#B8ECEC" d="M45.16 138.025h17.392v-4.778H45.16z"/>
        <path d="M295.972 121.86a3.548 3.548 0 1 1-.003 7.094 3.548 3.548 0 0 1 .003-7.094zm-1.938-4.141-3.751 2.164.663 1.149c.195.337.176.752-.037 1.08-.117.18-.226.367-.323.56a1.03 1.03 0 0 1-.916.569h-1.326v4.333h1.326c.389 0 .74.222.916.57.097.192.206.38.323.56.213.327.232.742.037 1.08l-.663 1.147 3.751 2.164.664-1.152a1.03 1.03 0 0 1 .955-.505 6.145 6.145 0 0 0 .638 0c.388-.02.757.165.95.502l.67 1.155 3.75-2.164-.663-1.151a1.028 1.028 0 0 1 .038-1.08c.117-.18.225-.366.323-.558.176-.346.526-.568.914-.568h1.326v-4.333h-1.326a1.03 1.03 0 0 1-.914-.568 5.948 5.948 0 0 0-.323-.558 1.03 1.03 0 0 1-.038-1.08l.664-1.152-3.752-2.164-.664 1.152a1.029 1.029 0 0 1-.953.502 6.82 6.82 0 0 0-.64 0c-.39.02-.76-.166-.956-.504l-.663-1.15z" fill="#FFD3D3"/>
        <g transform="translate(0 162.6)">
            <mask id="b" fill="#fff">
                <use xlink:href="#a"/>
            </mask>
            <path d="M295.709 21.756c0 8.658-64.042 15.674-143.042 15.674S9.625 30.414 9.625 21.756c0-8.656 64.042-15.673 143.042-15.673S295.709 13.1 295.709 21.756" fill="#52979A" mask="url(#b)"/>
        </g>
        <path d="M116.046 175.803c-1.325-.05-2.618.584-3.338 1.375-.691.761-1.281 1.83-1.238 2.988h.067c.312-2.188 2.294-4.115 4.51-4.294.044-.003.044-.068-.001-.07M106.279 170.853c-2.237-.023-4.827.775-6.21 2.609-.054.071.048.146.115.112 2.017-1.05 3.937-1.833 6.134-2.446.155-.043.12-.273-.04-.275M108.007 171.52c-2.236-.023-4.826.775-6.21 2.609-.053.071.049.146.115.112 2.018-1.05 3.937-1.833 6.135-2.446.155-.043.12-.273-.04-.275M109.736 172.187c-2.236-.023-4.826.775-6.21 2.609-.053.071.049.146.115.112 2.018-1.05 3.937-1.833 6.135-2.446.154-.044.12-.273-.04-.275M111.465 172.853c-2.237-.022-4.827.776-6.21 2.61-.053.071.048.146.115.112 2.018-1.05 3.937-1.833 6.134-2.446.155-.044.12-.274-.04-.276" fill="#132529"/>
        <path d="M105.947 169.64c-.768.563-1.558 1.085-2.305 1.677.395-1.116.74-2.243 1.248-3.318.243-.513.501-1.036.812-1.511.483-.741 2.671-2.617 2.903-.185.127 1.34-1.742 2.665-2.658 3.337m2.727-4.763c-1.135-.935-2.558-.012-3.252.965-1.125 1.582-1.894 3.797-2.012 5.725-.003.048.033.067.07.064.048.16.238.294.403.18 1.588-1.108 3.423-2.094 4.624-3.655.702-.912 1.241-2.395.167-3.279" fill="#132529"/>
        <path fill="#EC9891" d="M76.776 34.062v-.003.003"/>
        <path d="M111.986 73.16c.645.78 1.304 1.565 1.879 2.399a32.78 32.78 0 0 1 1.613 2.573c1.212 2.168 1.631 3.715 1.595 3.622-.86-2.193-2.869-5.211-3.443-6.046-.573-.832-1.104-1.693-1.676-2.526l.032-.021M108.936 75.18c1.106.876 3.428 4.142 4.323 6.33.037.092-.012.085-.066.001-.701-1.081-3.533-5.273-4.283-6.315l.026-.017M106.007 76.441c1.281 1.268 2.357 3 3.203 5 .038.09-.035.077-.087-.01-1.033-1.681-1.832-3.008-3.169-4.946l.053-.044" fill="#132529"/>
        <path fill="#F5BB3D" d="M253.094 187.727H101.105l21.977-124.64h151.99l-21.978 124.64"/>
        <path fill="#F5BB3D" d="M175.1 50.18h-49.742l-2.276 12.908h53.233L175.1 50.18"/>
        <path fill="#76DADB" d="M253.094 187.727H101.105l21.977-124.64h151.99l-21.978 124.64"/>
        <path fill="#76DADB" d="M176.315 63.088h-53.233l2.276-12.908H175.1l1.215 12.908"/>
        <path d="M112.557 68.928c-.529.533-1.133.933-1.755 1.301-.63.356-1.28.68-2.005.87.528-.533 1.132-.933 1.755-1.301.63-.355 1.28-.678 2.005-.87M115.874 72.117c-.192.725-.515 1.374-.87 2.005-.368.623-.768 1.227-1.301 1.755.19-.725.514-1.374.87-2.004.369-.623.769-1.228 1.301-1.756M120.34 73.22c.198.724.242 1.447.25 2.17-.007.724-.051 1.448-.25 2.172-.197-.724-.241-1.448-.248-2.171.008-.724.052-1.447.249-2.17M124.761 71.942c.532.528.932 1.133 1.301 1.755.356.63.679 1.28.87 2.005-.533-.528-.933-1.133-1.301-1.756-.355-.63-.678-1.28-.87-2.004M127.95 68.625c.725.191 1.374.515 2.005.87.622.367 1.227.767 1.755 1.3-.726-.19-1.375-.514-2.005-.869-.622-.369-1.227-.77-1.755-1.3" fill="#132529"/>
        <path fill="#B8ECEC" d="M252.871 187.727H100.554L78.928 67.613h152.318l21.625 120.114"/>
        <path d="M138.04 134.709a6.331 6.331 0 1 1-12.661 0 6.331 6.331 0 0 1 12.662 0M188.088 134.709a6.331 6.331 0 1 1-12.662-.001 6.331 6.331 0 0 1 12.662 0M165.827 142.05l-.348-.663c-.032-.06-3.302-6.105-9.883-6.105-6.002 0-7.465 5.692-7.524 5.935l-.178.725-1.451-.35.174-.727c.017-.07 1.784-7.08 8.98-7.08 7.5 0 11.06 6.626 11.207 6.908l.348.662-1.325.695" fill="#52979A"/>
        <path d="M242.815 134.226c.328-.07.656-.147.98-.23l-.122-.484a25.1 25.1 0 0 1-.962.226l.104.488" fill="#132529"/>
        <text font-family="Mulish-Medium, Mulish" font-size="20" font-weight="400" fill="#424242">
                    <!-- <tspan x="38" y="250">No visit history available</tspan> -->
                </text>
    </g>
</svg>
