<svg width="42" height="42" viewBox="0 0 42 42" xmlns="http://www.w3.org/2000/svg" xmlns:xlink="http://www.w3.org/1999/xlink">
    <defs>
        <path d="m7.193 3.394.033.551-.536-.067c-1.948-.26-3.65-1.138-5.095-2.613L.888.533l-.182.54C.321 2.28.567 3.552 1.37 4.408c.428.473.332.54-.407.26-.257-.091-.481-.159-.503-.125-.075.08.182 1.104.386 1.51.278.562.845 1.114 1.466 1.44l.525.26-.621.01c-.6 0-.621.012-.557.249.214.732 1.06 1.509 2.002 1.846l.664.237-.578.36a5.844 5.844 0 0 1-2.87.834c-.48.01-.877.056-.877.09 0 .112 1.306.743 2.066.99 2.28.733 4.988.417 7.022-.833 1.445-.89 2.89-2.657 3.565-4.369.364-.912.728-2.579.728-3.378 0-.518.032-.586.631-1.205.353-.36.685-.755.75-.867.107-.214.096-.214-.45-.023-.91.338-1.038.293-.589-.214.332-.36.728-1.013.728-1.205 0-.033-.16.023-.342.124-.193.113-.621.282-.942.383l-.578.192L12.064.6c-.289-.203-.696-.428-.91-.496-.546-.157-1.38-.135-1.873.045a3.226 3.226 0 0 0-2.088 3.244z" id="a"/>
    </defs>
    <g transform="translate(1 1)" fill="none" fill-rule="evenodd">
        <circle stroke="#B8ECEC" cx="20" cy="20" r="20"/>
        <use fill="#B8ECEC" xlink:href="#a" transform="translate(13.462 14.203)"/>
    </g>
</svg>
