<svg width="34" height="34" viewBox="0 0 34 34" xmlns="http://www.w3.org/2000/svg">
    <g fill="none" fill-rule="evenodd">
        <rect fill="#FFF" width="34" height="34" rx="17"/>
        <path d="M17.176 26c-.242 0-.485-.087-.688-.235-.2-.15-4.892-3.68-6.671-5.985-1.495-1.933-2.121-4.176-1.677-6.01.349-1.437 1.301-2.552 2.756-3.234a5.677 5.677 0 0 1 6.28.992 5.678 5.678 0 0 1 6.28-.992c1.454.682 2.407 1.797 2.755 3.234.446 1.834-.181 4.077-1.677 6.01-1.778 2.305-6.471 5.836-6.67 5.985a1.182 1.182 0 0 1-.688.235z" fill="#FF6D6E"/>
    </g>
</svg>
