<svg width="21" height="12" viewBox="0 0 21 12" xmlns="http://www.w3.org/2000/svg">
    <g fill="#424242" fill-rule="nonzero">
        <path d="M10.343 4.727a3.64 3.64 0 0 0-3.636 3.637A3.64 3.64 0 0 0 10.343 12a3.64 3.64 0 0 0 3.637-3.636 3.64 3.64 0 0 0-3.637-3.637zm0 5.657a2.022 2.022 0 0 1-2.02-2.02c0-1.114.907-2.02 2.02-2.02 1.114 0 2.02.906 2.02 2.02 0 1.114-.906 2.02-2.02 2.02z"/>
        <path d="M20.6 6.45c-.891-1.766-2.304-3.261-4.085-4.327l-1.522-.764c-1.21-.5-2.508-.802-3.841-.888H9.535a12.096 12.096 0 0 0-3.841.888l-1.522.764C2.391 3.189.978 4.684.087 6.449a.808.808 0 0 0 1.443.729C3.029 4.209 6.369 2.06 10.343 2.06c3.978 0 7.317 2.15 8.814 5.117A.808.808 0 1 0 20.6 6.45z"/>
    </g>
</svg>
