<svg width="42" height="42" viewBox="0 0 42 42" xmlns="http://www.w3.org/2000/svg">
    <g transform="translate(1 1)" fill-rule="nonzero" fill="none">
        <circle stroke="#B8ECEC" cx="20" cy="20" r="20"/>
        <path d="M20.327 12.999h.054l.277.001c.595.004 1.819.017 3.092.061l.51.02c1.362.056 2.692.152 3.288.316a2.326 2.326 0 0 1 1.637 1.636c.356 1.303.38 3.872.382 4.39v.133c-.002.367-.026 3.072-.382 4.425a2.326 2.326 0 0 1-1.637 1.637c-1.267.333-5.847.376-7 .381L20.38 26h-.363c-1.15-.006-5.72-.05-7-.398a2.327 2.327 0 0 1-1.637-1.636c-.343-1.29-.379-3.857-.382-4.374v-.184c.003-.515.039-3.072.382-4.375a2.374 2.374 0 0 1 1.636-1.652c1.23-.323 5.58-.373 6.89-.38l.277-.002h.054zm-1.895 3.717v5.567l4.833-2.783-4.833-2.784z" fill="#B8ECEC"/>
    </g>
</svg>
