<svg width="40" height="40" viewBox="0 0 40 40" xmlns="http://www.w3.org/2000/svg" xmlns:xlink="http://www.w3.org/1999/xlink">
    <defs>
        <circle id="a" cx="20" cy="20" r="20"/>
    </defs>
    <g fill="none" fill-rule="evenodd">
        <mask id="b" fill="#fff">
            <use xlink:href="#a"/>
        </mask>
        <circle stroke="#14C1C2" stroke-width="1.5" cx="20" cy="20" r="19.25"/>
        <g mask="url(#b)" fill="#E7F8F8" fill-rule="nonzero" stroke="#00C4C4">
            <path d="M20 11.5c1.186 0 2.26.482 3.039 1.261A4.286 4.286 0 0 1 24.3 15.8c0 1.186-.482 2.26-1.261 3.039A4.286 4.286 0 0 1 20 20.1a4.286 4.286 0 0 1-3.039-1.261A4.286 4.286 0 0 1 15.7 15.8c0-1.186.482-2.26 1.261-3.039A4.286 4.286 0 0 1 20 11.5zM21.067 22.167c1.715 0 3.33.682 4.549 1.92a6.498 6.498 0 0 1 1.866 4.102l-14.54.501c-.324-1.98.32-3.463 1.442-4.603a6.346 6.346 0 0 1 4.55-1.92z"/>
        </g>
    </g>
</svg>
