<svg width="140" height="140" xmlns="http://www.w3.org/2000/svg">
    <g fill="none" fill-rule="evenodd">
        <g fill-rule="nonzero">
            <path d="M46.857 80h-2.245C41.512 80 39 77.402 39 74.196c0-1.923 1.508-3.482 3.367-3.482h4.49V80z" fill="#BD4150"/>
            <path fill="#ECEAEC" d="M89.518 35H48.013l-1.156 2.247v66.324h52.757l2.243-1.158V47.359z"/>
            <path d="M47.686 99.355V35a2.258 2.258 0 0 0-2.257 2.258v65.484A2.258 2.258 0 0 0 47.686 105H99.6a2.258 2.258 0 0 0 2.257-2.258H51.071a3.386 3.386 0 0 1-3.385-3.387zM101.857 46.953c0-.585-.232-1.147-.647-1.56l-9.746-9.746a2.208 2.208 0 0 0-1.56-.647h-.19v11.039c0 .61.494 1.104 1.104 1.104h11.04v-.19z" fill="#DAD8DB"/>
            <path d="M77.467 78.048H42.635c-.394 0-.773-.067-1.124-.19l-1.082 1.797v14.132a3.363 3.363 0 0 0 3.37 3.356h33.668l2.247-1.197v-15.66a2.242 2.242 0 0 0-2.247-2.238z" fill="#E15F78"/>
            <path d="M41.262 77.461A3.378 3.378 0 0 1 39 74.286V94.49c0 1.86 1.52 3.367 3.393 3.367h35.06a2.254 2.254 0 0 0 2.261-2.245h-35.06c-1.873 0-3.392-1.507-3.392-3.367V77.46z" fill="#DB4655"/>
            <g fill="#FFF">
                <path d="M71.157 86.628h-2.212v-2.166h2.5c.623 0 1.126-.512 1.126-1.143 0-.63-.504-1.143-1.126-1.143h-3.627c-.622 0-1.126.512-1.126 1.143v9.076c0 .631.504 1.143 1.126 1.143.623 0 1.127-.512 1.127-1.143v-3.48h2.212c.622 0 1.126-.513 1.126-1.144 0-.63-.504-1.143-1.126-1.143zM50.493 82.143h-2.51c-.298 0-.585.121-.797.336-.21.214-.328.504-.328.807v9.143c0 .63.503 1.142 1.126 1.142.622 0 1.126-.511 1.126-1.142v-2.835c.506-.003 1.061-.005 1.383-.005 2.051 0 3.72-1.67 3.72-3.723a3.726 3.726 0 0 0-3.72-3.723zm0 5.16c-.319 0-.869.002-1.371.005-.003-.527-.008-2.88-.008-2.88h1.38c.795 0 1.466.659 1.466 1.438 0 .779-.671 1.437-1.467 1.437zM59.941 82.278h-2.477c-.299 0-.586.12-.797.335a1.15 1.15 0 0 0-.33.81l.007 4.424c0 1.234.011 4.45.011 4.45.001.303.121.594.334.808.21.212.496.331.793.331h.005s1.836-.007 2.546-.02c2.646-.047 4.567-2.385 4.567-5.559 0-3.337-1.872-5.58-4.659-5.58zm.053 8.853c-.323.006-.88.01-1.389.013a1388.75 1388.75 0 0 1-.007-3.297l-.005-3.284h1.348c2.29 0 2.406 2.744 2.406 3.294 0 1.609-.727 3.245-2.353 3.274z"/>
            </g>
            <path d="M62.444 73.571c-.88 0-1.674-.455-2.233-1.313-.83-1.274-.612-2.716.598-3.958 1.22-1.253 3.717-2.432 6.722-3.394a58.12 58.12 0 0 0 2.784-6.086 56.169 56.169 0 0 0 1.292-3.637c-1.502-2.737-2.395-5.285-2.157-6.94.241-1.679 1.503-2.624 3.377-2.521.557.03 1.885.319 2.206 2.352.245 1.554-.167 4.067-.993 6.923 1.563 2.621 3.706 5.43 5.802 7.584 3.169-.192 5.854.038 7.205.848 1.057.634 1.472 1.668 1.11 2.766-.592 1.794-2.022 2.615-3.83 2.196-1.522-.353-3.408-1.674-5.32-3.508-3.077.27-6.697.892-9.874 1.82-1.896 3.383-3.945 6.017-5.666 6.671-.348.133-.69.197-1.023.197zm-.32-2.545c.19.291.295.285.344.28.726-.074 1.935-1.32 3.315-3.425-.913.389-1.73.81-2.419 1.263-1.726 1.136-1.36 1.698-1.24 1.882zm20.084-6.292c.974.757 1.88 1.274 2.637 1.45.59.137.895.067 1.146-.695-.336-.507-1.767-.75-3.783-.755zm-9.055-6.989a61.613 61.613 0 0 1-2.643 6.318 55.73 55.73 0 0 1 6.54-1.22 44.93 44.93 0 0 1-3.897-5.098zm-.548-9.803c-.81 0-.852.302-.899.62-.119.838.177 2.029.762 3.402.515-2.447.41-3.741.16-4.022h-.023z" fill="#E15F78"/>
        </g>
        <rect stroke="#BDBDBD" x=".5" y=".5" width="139" height="139" rx="6"/>
    </g>
</svg>
