<svg width="30" height="30" viewBox="0 0 30 30" xmlns="http://www.w3.org/2000/svg">
    <g fill="none" fill-rule="evenodd">
        <path d="M0 0h30v30H0z"/>
        <g fill="#CBCBCB" fill-rule="nonzero" stroke="#CBCBCB" stroke-width=".3">
            <path d="M16.664 12.522a.413.413 0 0 0-.404.421v7.967c0 .233.18.422.404.422a.413.413 0 0 0 .403-.422v-7.967a.413.413 0 0 0-.403-.421zM13.336 12.522a.413.413 0 0 0-.403.421v7.967c0 .233.18.422.403.422a.413.413 0 0 0 .404-.422v-7.967a.413.413 0 0 0-.404-.421z"/>
            <path d="M9.147 11.359v10.386c0 .614.215 1.19.592 1.604.374.415.896.65 1.442.651h7.638a1.949 1.949 0 0 0 1.442-.651c.377-.414.592-.99.592-1.604V11.359c.749-.208 1.234-.963 1.134-1.765-.1-.802-.755-1.402-1.53-1.402h-2.066v-.527a1.694 1.694 0 0 0-.466-1.181A1.552 1.552 0 0 0 16.792 6h-3.584a1.552 1.552 0 0 0-1.133.484c-.3.313-.468.738-.466 1.181v.527H9.542c-.774 0-1.429.6-1.529 1.402-.1.802.385 1.557 1.134 1.765zm9.672 11.798H11.18c-.69 0-1.227-.62-1.227-1.412v-10.35h10.092v10.35c0 .793-.537 1.412-1.227 1.412zM12.416 7.665a.83.83 0 0 1 .23-.586.76.76 0 0 1 .562-.236h3.584a.76.76 0 0 1 .562.236.83.83 0 0 1 .23.586v.527h-5.168v-.527zm-2.874 1.37h10.916c.401 0 .726.34.726.759 0 .42-.325.759-.726.759H9.542c-.401 0-.726-.34-.726-.759 0-.42.325-.759.726-.759z"/>
        </g>
    </g>
</svg>
