<svg width="21" height="12" viewBox="0 0 21 12" xmlns="http://www.w3.org/2000/svg">
    <path d="M.218 1.458c.9 1.781 2.324 3.29 4.122 4.365L2.133 8.03a.815.815 0 0 0 1.153 1.152l2.588-2.588c1.22.505 2.53.808 3.876.896v3.695a.815.815 0 1 0 1.63 0V7.49a12.203 12.203 0 0 0 3.876-.896l2.589 2.589a.815.815 0 1 0 1.153-1.153L16.79 5.823c1.797-1.075 3.222-2.584 4.121-4.365a.815.815 0 0 0-1.455-.735c-1.512 2.995-4.882 5.163-8.892 5.163-4.013 0-7.38-2.17-8.891-5.163a.815.815 0 1 0-1.456.735z" fill="#424242" fill-rule="nonzero" opacity=".9"/>
</svg>
