<svg width="17" height="14" viewBox="0 0 17 14" xmlns="http://www.w3.org/2000/svg">
    <path d="M15.406 2.154c.532 0 .93.202 1.196.606.265.403.398.74.398 1.01V12.4c0 .427-.174.8-.523 1.12-.349.32-.694.479-1.038.479H1.478c-.344 0-.676-.157-.997-.471A1.541 1.541 0 0 1 0 12.385V3.752c0-.527.2-.925.598-1.194.398-.27.73-.404.996-.404h2.44L5.313 0h6.375l1.278 2.154h2.44zm.531 10.247V3.77c0-.022-.041-.118-.124-.286a.422.422 0 0 0-.407-.252h-3.038l-.299-.522-.946-1.632H5.91L4.632 3.23H1.594c-.045 0-.144.045-.3.134a.424.424 0 0 0-.232.387v8.633c0 .145.056.272.167.378.11.107.199.16.265.16H15.44c.078-.011.18-.076.308-.193.127-.118.19-.228.19-.329zM8.5 3.77c.51 0 .99.098 1.444.295a3.73 3.73 0 0 1 1.984 2.01c.194.46.29.948.29 1.464s-.096 1.004-.29 1.464a3.73 3.73 0 0 1-1.984 2.01 3.599 3.599 0 0 1-1.444.296c-.51 0-.99-.098-1.444-.295a3.73 3.73 0 0 1-1.984-2.01 3.733 3.733 0 0 1-.29-1.465 3.787 3.787 0 0 1 1.087-2.667 3.73 3.73 0 0 1 1.187-.807A3.599 3.599 0 0 1 8.5 3.769zm0 6.462a2.54 2.54 0 0 0 1.876-.791 2.61 2.61 0 0 0 .78-1.902c0-.74-.26-1.374-.78-1.901a2.54 2.54 0 0 0-1.876-.79 2.54 2.54 0 0 0-1.876.79 2.61 2.61 0 0 0-.78 1.901c0 .74.26 1.375.78 1.902a2.54 2.54 0 0 0 1.876.79z" fill="#666" fill-rule="nonzero"/>
</svg>
